<svg id="Always_innovate" data-name="Always innovate" xmlns="http://www.w3.org/2000/svg" xmlns:xlink="http://www.w3.org/1999/xlink" width="55.534" height="58.947" viewBox="0 0 55.534 58.947">
  <defs>
    <clipPath id="clip-path">
      <path id="Path_34383" data-name="Path 34383" d="M264.47,119.9c-.106-.913-.167-1.826-.183-2.755-.015-1.2-.061-10.607,3.972-12.083a5.082,5.082,0,0,1,2.968.015,5.288,5.288,0,0,1,2.465,1.72c2.222,3.333-3.318,9.862-4.413,11.155-.928,1.1-2.085,2.176-3.561,2.191A3.309,3.309,0,0,1,264.47,119.9Z" transform="translate(-264.285 -104.836)"/>
    </clipPath>
    <clipPath id="clip-path-3">
      <path id="Path_34390" data-name="Path 34390" d="M137.608,175.013c3.424-3.774,11.734-4.063,14.792-3.561,3.257.533,6.164,1.339,7.533,3.759a7.935,7.935,0,0,1,.38,6.955,4.838,4.838,0,0,1-2.268,2.176c-3.759,1.765-16.893,1.7-19.693.259a5.715,5.715,0,0,1-2.755-4.063C135.143,178,136.984,175.7,137.608,175.013Z" transform="translate(-135.527 -171.264)"/>
    </clipPath>
    <clipPath id="clip-path-5">
      <path id="Path_34395" data-name="Path 34395" d="M17.973,82.893a6.08,6.08,0,0,0,.061,4.9c1.75,3.865,7.7,3.637,9.344,3.576a17,17,0,0,0,4.733-.974,7.732,7.732,0,0,0,2.176-1.035,7.842,7.842,0,0,0,1.157-.974,5.745,5.745,0,0,0,1.324-1.674,4.567,4.567,0,0,0,.274-2.344C36.51,80.915,20.774,77.2,17.973,82.893Z" transform="translate(-17.484 -79.948)"/>
    </clipPath>
    <clipPath id="clip-path-7">
      <path id="Path_34400" data-name="Path 34400" d="M261.749,226.429c3.637,6,2.45,9.725,4.55,11.764,2.45,2.374,6.3,1.248,7.822-.9,2.861-4,.974-14.092-4.84-21.275-3.439-4.261-7.5-2.268-8.994-.3C257.99,218.728,260.592,224.511,261.749,226.429Z" transform="translate(-259.37 -213.492)"/>
    </clipPath>
    <clipPath id="clip-path-9">
      <path id="Path_34405" data-name="Path 34405" d="M93.866,141.571c-.426,3.652,2.435,11.307,6.346,11.779,3.074.365,4.809-1.111,5.524-2.45,2.1-3.911-1.568-11.049-5.372-12.51C98.72,137.767,94.17,138.954,93.866,141.571Z" transform="translate(-93.824 -138.227)"/>
    </clipPath>
    <clipPath id="clip-path-10">
      <path id="Path_34410" data-name="Path 34410" d="M124.949,224.313c.73,6.97-1.933,9.846-.9,12.586,1.2,3.2,5.433,3.348,7.457,2.526,4.566-1.841,6.894-12.342,4.718-21.306-1.294-5.326-5.813-5.25-8.02-4.109C124.843,215.745,124.721,222.076,124.949,224.313Z" transform="translate(-123.809 -213.384)"/>
    </clipPath>
    <clipPath id="clip-path-12">
      <path id="Path_34417" data-name="Path 34417" d="M108.653,30.195a5,5,0,0,0,2.6,1.309c4.444.746,13.012-8.416,11.216-15.355-.137-.533-.822-3.165-3.013-4.079a5.65,5.65,0,0,0-5.722,1.294c-1.765,1.72-1.278,3.1-3.181,7-1.689,3.439-3.226,4.139-3.165,6.5A5.01,5.01,0,0,0,108.653,30.195Z" transform="translate(-107.389 -11.741)"/>
    </clipPath>
  </defs>
  <path id="Path_34379" data-name="Path 34379" d="M.305,111.141a1.9,1.9,0,0,0-.03,1.887c.411.517,1.978.152,2.892-.167.578-.213.67-.046.715-.685a.973.973,0,0,0-.365-.715C3.105,111.385.853,110.471.305,111.141Z" transform="translate(-0.037 -94.009)" fill="#95c973"/>
  <path id="Path_34380" data-name="Path 34380" d="M243.473,217.459a6.773,6.773,0,0,0-4.642-.107,5.4,5.4,0,0,0-3.957,4.368c-1.065,4.474-1.933,13.316.639,18.293a4.568,4.568,0,0,0,1.05,1.354,4.821,4.821,0,0,0,2.861,1.035,5.54,5.54,0,0,0,3.272-.883c1.552-1.05,2.161-2.678,2.526-5.144a59.161,59.161,0,0,0,.624-7.868,24.119,24.119,0,0,0-.2-3.47A25.19,25.19,0,0,0,243.473,217.459Z" transform="translate(-198.249 -183.952)" fill="#63a538"/>
  <path id="Path_34381" data-name="Path 34381" d="M264.47,119.9c-.106-.913-.167-1.826-.183-2.755-.015-1.2-.061-10.607,3.972-12.083a5.082,5.082,0,0,1,2.968.015,5.288,5.288,0,0,1,2.465,1.72c2.222,3.333-3.318,9.862-4.413,11.155-.928,1.1-2.085,2.176-3.561,2.191A3.309,3.309,0,0,1,264.47,119.9Z" transform="translate(-224.07 -88.871)" fill="#63a538"/>
  <g id="Group_21570" data-name="Group 21570" transform="translate(40.215 15.965)">
    <g id="Group_21568" data-name="Group 21568" clip-path="url(#clip-path)">
      <path id="Path_34382" data-name="Path 34382" d="M298.757,146.97l-.457-.35a14.46,14.46,0,0,0,2.131-3.82l.533.213A15.312,15.312,0,0,1,298.757,146.97Z" transform="translate(-293.123 -137.022)" fill="#fff"/>
    </g>
    <g id="Group_21569" data-name="Group 21569" clip-path="url(#clip-path)">
      <path id="Path_34384" data-name="Path 34384" d="M310.191,118.946l-.548-.152a1.851,1.851,0,0,0-.944-2.161l.228-.533A2.429,2.429,0,0,1,310.191,118.946Z" transform="translate(-301.941 -114.386)" fill="#fff"/>
    </g>
  </g>
  <path id="Path_34386" data-name="Path 34386" d="M83.853,18.381a5,5,0,0,0,2.6,1.309c4.444.746,13.012-8.416,11.216-15.355C97.535,3.8,96.85,1.169,94.659.256a5.583,5.583,0,0,0-5.707,1.294c-1.765,1.72-1.278,3.1-3.181,7-1.7,3.439-3.242,4.155-3.181,6.5A5.046,5.046,0,0,0,83.853,18.381Z" transform="translate(-70.025 0.075)" fill="#63a538"/>
  <path id="Path_34387" data-name="Path 34387" d="M88.018,216.348a6.771,6.771,0,0,0-4.626-.35c-.822.259-2.435.989-4.185,4.139-3.181,5.737-3.668,13.788-.335,18.308a5.922,5.922,0,0,0,3.379,2.526,5.356,5.356,0,0,0,3.729-.624c1.568-.959,2.283-2.481,2.8-5.007a61.878,61.878,0,0,0,1.05-7.822,24,24,0,0,0-.015-3.47A26.063,26.063,0,0,0,88.018,216.348Z" transform="translate(-64.937 -182.887)" fill="#63a538"/>
  <path id="Path_34388" data-name="Path 34388" d="M137.608,175.013c3.424-3.774,11.734-4.063,14.792-3.561,3.257.533,6.164,1.339,7.533,3.759a7.935,7.935,0,0,1,.38,6.955,4.838,4.838,0,0,1-2.268,2.176c-3.759,1.765-16.893,1.7-19.693.259a5.715,5.715,0,0,1-2.755-4.063C135.143,178,136.984,175.7,137.608,175.013Z" transform="translate(-114.908 -145.189)" fill="#d2e9c2"/>
  <g id="Group_21573" data-name="Group 21573" transform="translate(20.62 26.075)">
    <g id="Group_21571" data-name="Group 21571" clip-path="url(#clip-path-3)">
      <path id="Path_34389" data-name="Path 34389" d="M226.922,184.974a17.094,17.094,0,0,0-4.976-.35l-.046-.578a18.259,18.259,0,0,1,5.144.365Z" transform="translate(-208.755 -182.062)" fill="#fff"/>
    </g>
    <g id="Group_21572" data-name="Group 21572" clip-path="url(#clip-path-3)">
      <path id="Path_34391" data-name="Path 34391" d="M187.7,187.685l-.2-.533a19.766,19.766,0,0,1,3.089-.852l.107.563A17.151,17.151,0,0,0,187.7,187.685Z" transform="translate(-179.591 -184.012)" fill="#fff"/>
    </g>
  </g>
  <path id="Path_34393" data-name="Path 34393" d="M17.973,82.893a6.08,6.08,0,0,0,.061,4.9c1.75,3.865,7.7,3.637,9.344,3.576a17,17,0,0,0,4.733-.974,7.732,7.732,0,0,0,2.176-1.035,7.842,7.842,0,0,0,1.157-.974,5.745,5.745,0,0,0,1.324-1.674,4.567,4.567,0,0,0,.274-2.344C36.51,80.915,20.774,77.2,17.973,82.893Z" transform="translate(-14.829 -67.77)" fill="#d2e9c2"/>
  <g id="Group_21576" data-name="Group 21576" transform="translate(2.655 12.178)">
    <g id="Group_21574" data-name="Group 21574" clip-path="url(#clip-path-5)">
      <path id="Path_34394" data-name="Path 34394" d="M80.318,92.859a15.075,15.075,0,0,0-2.618-.38l.03-.578a16.148,16.148,0,0,1,2.709.4Z" transform="translate(-68.536 -90.081)" fill="#fff"/>
    </g>
    <g id="Group_21575" data-name="Group 21575" clip-path="url(#clip-path-5)">
      <path id="Path_34396" data-name="Path 34396" d="M36.483,93.109l-.183-.548a15.858,15.858,0,0,1,4.368-.761l.03.578A15.318,15.318,0,0,0,36.483,93.109Z" transform="translate(-33.436 -89.996)" fill="#fff"/>
    </g>
  </g>
  <path id="Path_34398" data-name="Path 34398" d="M261.749,226.429c3.637,6,2.45,9.725,4.55,11.764,2.45,2.374,6.3,1.248,7.822-.9,2.861-4,.974-14.092-4.84-21.275-3.439-4.261-7.5-2.268-8.994-.3C257.99,218.728,260.592,224.511,261.749,226.429Z" transform="translate(-219.903 -180.991)" fill="#95c973"/>
  <g id="Group_21579" data-name="Group 21579" transform="translate(39.467 32.501)">
    <g id="Group_21577" data-name="Group 21577" clip-path="url(#clip-path-7)">
      <path id="Path_34399" data-name="Path 34399" d="M326.9,268.544a23.868,23.868,0,0,0-2.5-5.54l.487-.3a24.407,24.407,0,0,1,2.557,5.676Z" transform="translate(-314.503 -255.211)" fill="#fff"/>
    </g>
    <g id="Group_21578" data-name="Group 21578" clip-path="url(#clip-path-7)">
      <path id="Path_34401" data-name="Path 34401" d="M305.463,234.752a22.957,22.957,0,0,0-1.963-2.572l.426-.38a24.231,24.231,0,0,1,2.009,2.648Z" transform="translate(-296.784 -229.014)" fill="#fff"/>
    </g>
  </g>
  <path id="Path_34403" data-name="Path 34403" d="M93.866,141.571c-.426,3.652,2.435,11.307,6.346,11.779,3.074.365,4.809-1.111,5.524-2.45,2.1-3.911-1.568-11.049-5.372-12.51C98.72,137.767,94.17,138.954,93.866,141.571Z" transform="translate(-79.551 -117.18)" fill="#d2e9c2"/>
  <g id="Group_21581" data-name="Group 21581" transform="translate(14.273 21.047)">
    <g id="Group_21580" data-name="Group 21580" clip-path="url(#clip-path-9)">
      <path id="Path_34404" data-name="Path 34404" d="M138.126,156.687a7.293,7.293,0,0,0-2.526-3.515l.335-.472a8.074,8.074,0,0,1,2.724,3.789Z" transform="translate(-129.242 -150.497)" fill="#fff"/>
    </g>
  </g>
  <path id="Path_34406" data-name="Path 34406" d="M99.709,135.837a5.944,5.944,0,0,0-6.7,2.131c-.213.3.289.594.5.289a5.361,5.361,0,0,1,6.042-1.872c.35.122.5-.441.152-.548Z" transform="translate(-78.819 -114.901)" fill="#63a538"/>
  <path id="Path_34407" data-name="Path 34407" d="M170.795,185c1.035-1.963.791-4.459.213-6.529a.284.284,0,0,0-.548.152,11.836,11.836,0,0,1,.457,3.424,6.2,6.2,0,0,1-.609,2.663c-.167.32.32.609.487.289Z" transform="translate(-144.366 -151.127)" fill="#63a538"/>
  <path id="Path_34408" data-name="Path 34408" d="M124.949,224.313c.73,6.97-1.933,9.846-.9,12.586,1.2,3.2,5.433,3.348,7.457,2.526,4.566-1.841,6.894-12.342,4.718-21.306-1.294-5.326-5.813-5.25-8.02-4.109C124.843,215.745,124.721,222.076,124.949,224.313Z" transform="translate(-104.973 -180.899)" fill="#95c973"/>
  <g id="Group_21584" data-name="Group 21584" transform="translate(18.836 32.485)">
    <g id="Group_21582" data-name="Group 21582" clip-path="url(#clip-path-10)">
      <path id="Path_34409" data-name="Path 34409" d="M189.339,252.074a11,11,0,0,0-.639-3.576l.533-.2a11.412,11.412,0,0,1,.685,3.774Z" transform="translate(-178.825 -242.986)" fill="#fff"/>
    </g>
    <g id="Group_21583" data-name="Group 21583" clip-path="url(#clip-path-10)">
      <path id="Path_34411" data-name="Path 34411" d="M189.348,299.846l-.548-.167a19.573,19.573,0,0,0,.746-6.164l.578-.015A20.234,20.234,0,0,1,189.348,299.846Z" transform="translate(-178.909 -281.308)" fill="#fff"/>
    </g>
  </g>
  <path id="Path_34413" data-name="Path 34413" d="M121.851,236.922a17.99,17.99,0,0,0-.837,5.813c.015.776.107,1.537.152,2.313a21.033,21.033,0,0,1,.015,2.77,24.371,24.371,0,0,1-.654,4.2,19.524,19.524,0,0,0-.578,3.074,4.362,4.362,0,0,0,1.613,3.683c.289.228.7-.167.411-.411a3.836,3.836,0,0,1-1.446-3.1,15.729,15.729,0,0,1,.517-2.907,27.872,27.872,0,0,0,.67-4.033,20.985,20.985,0,0,0,.061-2.587c-.03-.822-.137-1.628-.183-2.45a17.648,17.648,0,0,1,.791-6.24c.137-.335-.426-.487-.533-.122Z" transform="translate(-101.692 -200.676)" fill="#3d7c14"/>
  <path id="Path_34414" data-name="Path 34414" d="M257.561,262.367a17.081,17.081,0,0,0,1.385,4.033c.517,1.1,1.187,2.1,1.72,3.2a20.882,20.882,0,0,1,1.385,3.668c.274.959.457,1.933.67,2.892a9.072,9.072,0,0,0,.822,2.5c.183.32.67.03.5-.289a8.315,8.315,0,0,1-.7-2.1c-.213-.944-.4-1.887-.639-2.815a24.073,24.073,0,0,0-1.233-3.516c-.517-1.157-1.218-2.222-1.8-3.348a16.53,16.53,0,0,1-1.552-4.383c-.076-.35-.639-.2-.563.167Z" transform="translate(-218.363 -222.118)" fill="#3d7c14"/>
  <path id="Path_34415" data-name="Path 34415" d="M108.653,30.195a5,5,0,0,0,2.6,1.309c4.444.746,13.012-8.416,11.216-15.355-.137-.533-.822-3.165-3.013-4.079a5.65,5.65,0,0,0-5.722,1.294c-1.765,1.72-1.278,3.1-3.181,7-1.689,3.439-3.226,4.139-3.165,6.5A5.01,5.01,0,0,0,108.653,30.195Z" transform="translate(-91.051 -9.943)" fill="#95c973"/>
  <g id="Group_21587" data-name="Group 21587" transform="translate(16.337 1.798)">
    <g id="Group_21585" data-name="Group 21585" clip-path="url(#clip-path-12)">
      <path id="Path_34416" data-name="Path 34416" d="M189,37.533l-.563-.122a4.476,4.476,0,0,0-.533-3.561l.457-.35A5.107,5.107,0,0,1,189,37.533Z" transform="translate(-175.647 -30.189)" fill="#fff"/>
    </g>
    <g id="Group_21586" data-name="Group 21586" clip-path="url(#clip-path-12)">
      <path id="Path_34418" data-name="Path 34418" d="M172.426,76.672l-.426-.38A12.037,12.037,0,0,0,174.435,72l.548.167A12.734,12.734,0,0,1,172.426,76.672Z" transform="translate(-162.167 -62.83)" fill="#fff"/>
    </g>
  </g>
  <path id="Path_34420" data-name="Path 34420" d="M121.635,8.086a6.511,6.511,0,0,0-5.129,3.15,13.432,13.432,0,0,0-.791,2.146,23.5,23.5,0,0,1-1.233,3.165,26.111,26.111,0,0,1-2.07,3.5c-.213.3.289.594.5.289A27.005,27.005,0,0,0,114.7,17.43a25.826,25.826,0,0,0,1.37-3.287c.243-.73.441-1.491.73-2.207A5.081,5.081,0,0,1,118,10.2a5.486,5.486,0,0,1,1.583-.974,7.377,7.377,0,0,1,2.055-.578c.365-.03.38-.609,0-.563Z" transform="translate(-95.267 -6.842)" fill="#3d7c14"/>
</svg>
