<svg id="Be_curious" data-name="Be curious" xmlns="http://www.w3.org/2000/svg" xmlns:xlink="http://www.w3.org/1999/xlink" width="63.981" height="59.824" viewBox="0 0 63.981 59.824">
  <defs>
    <clipPath id="clip-path">
      <path id="Path_34423" data-name="Path 34423" d="M21.543,159.064l-8.731,1.385a.711.711,0,0,1-.806-.544L10.271,152.3a.564.564,0,0,1,.388-.665l8.6-2.58Z" transform="translate(-10.256 -149.05)" fill="#a73f1b"/>
    </clipPath>
    <clipPath id="clip-path-2">
      <path id="Path_34427" data-name="Path 34427" d="M102.793,78.071,62.248,83.25a.779.779,0,0,1-.86-.6L58.1,68.256a.356.356,0,0,1,.235-.419L97.483,54.8Z" transform="translate(-58.095 -54.8)" fill="#dc7550"/>
    </clipPath>
    <clipPath id="clip-path-3">
      <path id="Path_34431" data-name="Path 34431" d="M304.467,52.472l-7.711,1.118a1.41,1.41,0,0,1-1.579-1.082l-5.953-26.117a1.41,1.41,0,0,1,.954-1.66l7.431-2.334a1.41,1.41,0,0,1,1.8,1.032l6.237,27.333a1.412,1.412,0,0,1-1.179,1.711Z" transform="translate(-289.189 -22.331)" fill="#a73f1b"/>
    </clipPath>
  </defs>
  <path id="Path_34421" data-name="Path 34421" d="M21.543,159.064l-8.731,1.385a.711.711,0,0,1-.806-.544L10.271,152.3a.564.564,0,0,1,.388-.665l8.6-2.58Z" transform="translate(-9.874 -127.329)" fill="#a73f1b"/>
  <g id="Group_21588" data-name="Group 21588" transform="translate(0.383 21.721)" clip-path="url(#clip-path)">
    <path id="Path_34422" data-name="Path 34422" d="M-5.494,143.832c-.034,0,11.921-3.226,11.921-3.226L4.252,135.49-8.11,139.607Z" transform="translate(5.008 -137.78)" fill="#fca695"/>
  </g>
  <path id="Path_34424" data-name="Path 34424" d="M8.381,151.954l2.962-.9,4.729-1.429,1.088-.329c.392-.118.225-.735-.169-.615l-2.962.9L9.3,151.01l-1.088.329C7.82,151.457,7.987,152.074,8.381,151.954Z" transform="translate(-7.989 -127.012)" fill="#8c2b11"/>
  <path id="Path_34425" data-name="Path 34425" d="M102.793,78.071,62.248,83.25a.779.779,0,0,1-.86-.6L58.1,68.256a.356.356,0,0,1,.235-.419L97.483,54.8Z" transform="translate(-49.633 -48.996)" fill="#dc7550"/>
  <g id="Group_21589" data-name="Group 21589" transform="translate(8.462 5.804)" clip-path="url(#clip-path-2)">
    <path id="Path_34426" data-name="Path 34426" d="M41.75,33.624,88.72,19.6l-2.8-8.214L39.6,29.272Z" transform="translate(-44.093 -16.873)" fill="#ffcfc0"/>
  </g>
  <path id="Path_34428" data-name="Path 34428" d="M56.341,66.68l1.059-.353,2.871-.956,4.237-1.412L69.7,62.23l5.662-1.886,5.718-1.9,5.353-1.783,4.506-1.5,3.242-1.081c.507-.169,1.032-.338,1.545-.507l.066-.022c.387-.13.221-.746-.169-.615l-1.059.353-2.871.954-4.237,1.412-5.195,1.723L76.6,59.259l-5.716,1.9L65.53,62.946l-4.5,1.5-3.242,1.081-1.545.507-.066.022c-.387.128-.221.745.169.615Z" transform="translate(-47.857 -47.426)" fill="#dc7550"/>
  <path id="Path_34429" data-name="Path 34429" d="M304.467,52.472l-7.711,1.118a1.41,1.41,0,0,1-1.579-1.082l-5.953-26.117a1.41,1.41,0,0,1,.954-1.66l7.431-2.334a1.41,1.41,0,0,1,1.8,1.032l6.237,27.333a1.412,1.412,0,0,1-1.179,1.711Z" transform="translate(-241.701 -22.01)" fill="#a73f1b"/>
  <g id="Group_21590" data-name="Group 21590" transform="translate(47.488 0.321)" clip-path="url(#clip-path-3)">
    <path id="Path_34430" data-name="Path 34430" d="M289.2,9.406,301.5,5.537,299.415,0,287.55,4.173Z" transform="translate(-289.196 -1.924)" fill="#fca695"/>
  </g>
  <path id="Path_34432" data-name="Path 34432" d="M293.62,49.416l-1.162-5.081-1.991-8.727-1.258-5.514-.872-3.828c-.111-.486-.226-.973-.338-1.461a1.137,1.137,0,0,1,.844-1.39l7.441-2.292.216-.066c.39-.12.223-.736-.169-.615l-7.194,2.216a3.225,3.225,0,0,0-1.182.507,1.734,1.734,0,0,0-.611,1.581c.044.307.132.61.2.912l.811,3.546,1.182,5.222,2.109,9.2,1.255,5.507.1.454c.091.4.706.23.615-.169Z" transform="translate(-240.153 -20.427)" fill="#8c2b11"/>
  <path id="Path_34433" data-name="Path 34433" d="M120.974,112.849l-.616-2.7-.088-.387c-.091-.4-.706-.23-.615.169l.616,2.7.088.387C120.45,113.416,121.065,113.248,120.974,112.849Z" transform="translate(-100.789 -94.485)" fill="#dc7550"/>
  <path id="Path_34434" data-name="Path 34434" d="M125.454,132.52l-.888-3.884-.127-.556c-.091-.4-.706-.23-.615.169l.888,3.884.127.554c.091.4.706.23.615-.169Z" transform="translate(-104.255 -109.712)" fill="#a73f1b"/>
  <path id="Path_34435" data-name="Path 34435" d="M61,160.034l-.743-3.258-1.182-5.164-.274-1.2c-.091-.4-.706-.23-.615.169l.743,3.258,1.182,5.164.272,1.2c.091.4.706.231.615-.169Z" transform="translate(-49.7 -128.275)" fill="#8c2b11"/>
  <path id="Path_34436" data-name="Path 34436" d="M136.348,180.282l-1.324-5.789-.184-.809c-.091-.4-.706-.231-.615.169l1.321,5.789.184.809c.091.4.706.231.615-.169Z" transform="translate(-112.899 -147.613)" fill="#a73f1b"/>
  <ellipse id="Ellipse_4208" data-name="Ellipse 4208" cx="3.427" cy="3.426" rx="3.427" ry="3.426" transform="translate(29.785 22.133)" fill="#a73f1b"/>
  <path id="Path_34437" data-name="Path 34437" d="M207.045,165.747l.323.93.875,2.533,1.288,3.715,1.581,4.56,1.731,5,1.746,5.048,1.63,4.707,1.378,3.977.985,2.859c.157.453.309.909.471,1.351.008.02.014.041.022.059.132.385.748.22.613-.169l-.321-.93-.876-2.533-1.289-3.715-1.579-4.56-1.731-5-1.748-5.046-1.63-4.707-1.376-3.977L208.152,167c-.157-.453-.307-.909-.471-1.359l-.02-.059c-.133-.387-.75-.22-.615.169Z" transform="translate(-173.413 -140.885)" fill="#a73f1b"/>
  <path id="Path_34438" data-name="Path 34438" d="M142.023,161.753l-.329.949-.89,2.569-1.321,3.817-1.6,4.634-1.766,5.1-1.773,5.125-1.662,4.8-1.4,4.039-1.013,2.92c-.159.458-.338.914-.478,1.378a.215.215,0,0,1-.02.061c-.135.388.481.556.615.169l.329-.949.888-2.569,1.322-3.817,1.6-4.634,1.766-5.1,1.775-5.119,1.662-4.8,1.4-4.04,1.013-2.92c.159-.458.338-.914.478-1.378a.177.177,0,0,1,.022-.061c.133-.388-.481-.556-.615-.169Z" transform="translate(-109.184 -137.71)" fill="#a73f1b"/>
  <path id="Path_34439" data-name="Path 34439" d="M163.463,275.677H177.08a.319.319,0,0,0,0-.637H163.463a.319.319,0,0,0,0,.637Z" transform="translate(-136.961 -232.042)" fill="#a73f1b"/>
</svg>
