<svg id="Be_ethical" data-name="Be ethical" xmlns="http://www.w3.org/2000/svg" xmlns:xlink="http://www.w3.org/1999/xlink" width="46.192" height="66.992" viewBox="0 0 46.192 66.992">
  <defs>
    <clipPath id="clip-path">
      <path id="Path_34443" data-name="Path 34443" d="M88.757,202.507c-2.477-2.286-9.423-12.872-13.637-19.088a1.463,1.463,0,0,1-.12-1.507c2.033-3.678,11.165,8.188,12.057,9.388" transform="translate(-74.845 -181.208)" fill="#ffc280"/>
    </clipPath>
    <clipPath id="clip-path-2">
      <path id="Path_34449" data-name="Path 34449" d="M110.581,116.6c1.707-9.747-2.152-11.757-6.794-17.275-2.808-3.343-4.1-8.637-5.012-12.817-1.092-5.021-1.294-7.571-2.467-12.575-1.315-5.611-2.1-7.409-.8-7.8,1.99-.589,3.718,1.106,5.141,2.9l-.883-4.906c-.7-3.911,2.841-3.263,4.789-.322a41.512,41.512,0,0,1,2.071,4.043c-.106-2.1-.348-7.961.848-8.646,1.554-.887,3.53.659,4.53,4.007a23.654,23.654,0,0,1,.7,5.655c.174,3.526,2.091,12.1,3.692,15.252,3.071,6.064,5.165,4.437,5.265,2.934.246-3.737-.122-7.648,1.165-11.77,1.6-5.132,4.993-4.023,4.948.855-.152,16.444,3.554,13.937,1.427,25.243-.857,4.556-3.432,13.137-3.484,15.222" transform="translate(-94.841 -58.955)" fill="#ffc280"/>
    </clipPath>
    <clipPath id="clip-path-3">
      <path id="Path_34455" data-name="Path 34455" d="M197.446,55.141a.716.716,0,0,1-.814-.394c-.761-1.618-2.885-6.562-3.434-8-1.07-2.782-1.592-5.653-.2-8.5a5.013,5.013,0,0,1,4.6-2.761c2.613,0,5.317,2.265,5.923,5.81a.186.186,0,0,0,.308.108,5.526,5.526,0,0,1,6.317-.918,5.252,5.252,0,0,1,2.491,4.463C212.673,47.6,211.249,51.9,197.446,55.141Z" transform="translate(-192.157 -35.49)" fill="#e28100"/>
    </clipPath>
  </defs>
  <path id="Path_34440" data-name="Path 34440" d="M88.757,202.507c-2.477-2.286-9.423-12.872-13.637-19.088a1.463,1.463,0,0,1-.12-1.507c2.033-3.678,11.165,8.188,12.057,9.388" transform="translate(-74.845 -150.601)" fill="#ffc280"/>
  <g id="Group_21591" data-name="Group 21591" transform="translate(0 30.607)" clip-path="url(#clip-path)">
    <path id="Path_34441" data-name="Path 34441" d="M51.728,138.572a7.918,7.918,0,0,1,1.382.859c.333.242-.1-.089.136.106.152.122.3.244.451.368.328.275.648.556.965.841,1.488,1.343,2.9,2.777,4.275,4.23q4.265,4.5,8.171,9.326.39.486.773.977c-.077-.1,0,0,.162.214l.272.362a8.361,8.361,0,0,1,.744,1.118c.986,1.935,3.9.23,2.913-1.7a17.617,17.617,0,0,0-2.009-2.763c-1.158-1.469-2.364-2.9-3.585-4.317a113.877,113.877,0,0,0-8.948-9.482,16.439,16.439,0,0,0-4-3.05,1.738,1.738,0,0,0-2.308.6A1.7,1.7,0,0,0,51.728,138.572Z" transform="translate(-55.077 -143.43)" fill="#ffdcae"/>
    <path id="Path_34442" data-name="Path 34442" d="M59.075,183.33c1.8-.174,2.845,1.028,3.7,2.146.969,1.272-1.719,3.15-2.591,2.516C52.9,182.167,59.075,183.33,59.075,183.33Z" transform="translate(-59.806 -182.882)" fill="#dd643e"/>
  </g>
  <path id="Path_34444" data-name="Path 34444" d="M110.581,116.6c1.707-9.747-2.152-11.757-6.794-17.275-2.808-3.343-4.1-8.637-5.012-12.817-1.092-5.021-1.294-7.571-2.467-12.575-1.315-5.611-2.1-7.409-.8-7.8,1.99-.589,3.718,1.106,5.141,2.9l-.883-4.906c-.7-3.911,2.841-3.263,4.789-.322a41.512,41.512,0,0,1,2.071,4.043c-.106-2.1-.348-7.961.848-8.646,1.554-.887,3.53.659,4.53,4.007a23.654,23.654,0,0,1,.7,5.655c.174,3.526,2.091,12.1,3.692,15.252,3.071,6.064,5.165,4.437,5.265,2.934.246-3.737-.122-7.648,1.165-11.77,1.6-5.132,4.993-4.023,4.948.855-.152,16.444,3.554,13.937,1.427,25.243-.857,4.556-3.432,13.137-3.484,15.222" transform="translate(-91.358 -49.646)" fill="#ffc280"/>
  <g id="Group_21592" data-name="Group 21592" transform="translate(3.484 9.309)" clip-path="url(#clip-path-2)">
    <path id="Path_34445" data-name="Path 34445" d="M150.446,61.511c.578,1.354,3.949.437,4.181-.348.505-1.742-1.552-7.735-3.192-5.162C151.432,56,147.42,54.433,150.446,61.511Z" transform="translate(-139.826 -55.993)" fill="#dd643e"/>
    <path id="Path_34446" data-name="Path 34446" d="M113.416,75.863c.578,1.352,3.484-.115,3.618-.915.291-1.848-2.556-7.3-3.96-4.158C113.075,70.79,110.39,68.78,113.416,75.863Z" transform="translate(-108.992 -67.939)" fill="#dd643e"/>
    <path id="Path_34447" data-name="Path 34447" d="M81.851,101.659c.578,1.352,4.435.132,4.519-1.19.2-3.16-2.678-5.132-2.678-5.132S78.825,94.576,81.851,101.659Z" transform="translate(-83.296 -88.979)" fill="#dd643e"/>
    <path id="Path_34448" data-name="Path 34448" d="M263.319,131.972c-.814,1.406-1.22,3.7-.587,4.462.594.723,3.354.624,3.617.068.425-.4.075-1.66-.092-2.482-.131-.645-.244-2.493-.8-2.84A1.579,1.579,0,0,0,263.319,131.972Z" transform="translate(-233.227 -118.447)" fill="#dd643e"/>
  </g>
  <path id="Path_34450" data-name="Path 34450" d="M159,104.811c.131,2.061.268,4.124.507,6.177a67.5,67.5,0,0,0,1.19,6.946c.369,1.636.791,3.259,1.246,4.878a.3.3,0,0,0,.578-.16,82.131,82.131,0,0,1-1.883-8.038c-.371-2.1-.625-4.221-.8-6.348q-.141-1.725-.24-3.451c-.024-.383-.624-.385-.6,0Z" transform="translate(-144.336 -87.278)" fill="#d68547"/>
  <path id="Path_34451" data-name="Path 34451" d="M131.937,134.274a59.86,59.86,0,0,1-1.927-5.815,64.815,64.815,0,0,1-1.394-6.968c-.282-1.848-.523-3.7-.749-5.561a.308.308,0,0,0-.3-.3.3.3,0,0,0-.3.3c.368,3.016.758,6.035,1.331,9.019a50.237,50.237,0,0,0,1.568,6.153c.368,1.12.774,2.226,1.2,3.327.136.357.714.2.577-.159Z" transform="translate(-118.137 -96.448)" fill="#d68547"/>
  <path id="Path_34452" data-name="Path 34452" d="M124.658,234.606a27.55,27.55,0,0,0,.235-4.932,14.57,14.57,0,0,0-.564-3.658,10.868,10.868,0,0,0-1.662-3.1,16.563,16.563,0,0,0-2.063-2.246,26.5,26.5,0,0,1-2.294-2.345,21.9,21.9,0,0,1-2.495-3.789,34.87,34.87,0,0,1-2.894-7.756q-.362-1.422-.631-2.864c-.058-.315-.113-.632-.162-.949l-.044-.3-.016-.11c-.014-.1,0,.033,0-.016v-.066a.31.31,0,0,0-.3-.3.3.3,0,0,0-.3.3,34.139,34.139,0,0,0,.662,3.55,38.428,38.428,0,0,0,2.547,7.549,22.384,22.384,0,0,0,4.749,6.81c.716.688,1.465,1.341,2.122,2.091a12.682,12.682,0,0,1,1.941,3.014,9.907,9.907,0,0,1,.728,3.15,24.807,24.807,0,0,1-.014,4.662c-.038.437-.089.871-.146,1.308-.021.162.153.3.3.3a.307.307,0,0,0,.3-.3Z" transform="translate(-105.089 -167.92)" fill="#d68547"/>
  <path id="Path_34453" data-name="Path 34453" d="M197.446,55.141a.716.716,0,0,1-.814-.394c-.761-1.618-2.885-6.562-3.434-8-1.07-2.782-1.592-5.653-.2-8.5a5.013,5.013,0,0,1,4.6-2.761c2.613,0,5.317,2.265,5.923,5.81a.186.186,0,0,0,.308.108,5.526,5.526,0,0,1,6.317-.918,5.252,5.252,0,0,1,2.491,4.463C212.673,47.6,211.249,51.9,197.446,55.141Z" transform="translate(-171.719 -30.269)" fill="#e28100"/>
  <g id="Group_21593" data-name="Group 21593" transform="translate(20.437 5.221)" clip-path="url(#clip-path-3)">
    <path id="Path_34454" data-name="Path 34454" d="M207.912,57.617a.669.669,0,0,1-.756-.368c-.709-1.507-2.688-6.11-3.2-7.446-.99-2.591-1.916-6.082-.617-8.733a4.408,4.408,0,0,1,4.289-2.57,5.048,5.048,0,0,1,4.035,3.24,14.076,14.076,0,0,1,.807,3.226.174.174,0,0,0,.286.1c1.8-1.763,4.651-3.014,6.826-1.591a5.936,5.936,0,0,1,2.484,4.653C222.091,50.6,220.767,54.6,207.912,57.617Z" transform="translate(-200.864 -37.964)" fill="#ffd917"/>
  </g>
  <path id="Path_34456" data-name="Path 34456" d="M255.761,111.1l-.411-1.045.094-.037c1.51-.592,3.793-1.486,5.033-2.787l.815.774c-1.411,1.488-3.833,2.439-5.437,3.066Z" transform="translate(-223.904 -89.511)" fill="#fff"/>
  <path id="Path_34457" data-name="Path 34457" d="M287.7,76.631l-.871-.7a2.591,2.591,0,0,0,.43-2.8,1.733,1.733,0,0,0-1.366-1.1l.026-1.124a2.829,2.829,0,0,1,2.361,1.742A3.754,3.754,0,0,1,287.7,76.631Z" transform="translate(-249.123 -59.518)" fill="#fff"/>
  <path id="Path_34458" data-name="Path 34458" d="M203.714,5.965c.16.284.3.58.451.871l.794,1.55a.3.3,0,1,0,.523-.3l-.8-1.549c-.148-.289-.289-.585-.449-.871A.3.3,0,0,0,203.714,5.965Z" transform="translate(-181.231 -5.518)" fill="#fffdfd"/>
  <path id="Path_34459" data-name="Path 34459" d="M255.583,6.542c-.063.321-.15.638-.225.955l-.4,1.7c-.091.375.488.535.577.16q.206-.848.408-1.7c.077-.319.162-.636.225-.955a.308.308,0,0,0-.209-.369.3.3,0,0,0-.368.209Z" transform="translate(-223.569 -6.183)" fill="#fffdfd"/>
  <path id="Path_34460" data-name="Path 34460" d="M296.212,30.818c-.228.237-.476.456-.714.683-.422.4-.847.8-1.27,1.206a.3.3,0,1,0,.423.423c.423-.4.848-.8,1.27-1.206.239-.226.486-.446.714-.683a.3.3,0,0,0-.423-.423Z" transform="translate(-255.928 -26.346)" fill="#fffdfd"/>
  <path id="Path_34461" data-name="Path 34461" d="M325.209,75.721c-.282.063-.57.106-.855.159l-1.584.286a.3.3,0,0,0-.209.369.308.308,0,0,0,.369.209l1.584-.289c.284-.052.572-.1.855-.159a.3.3,0,0,0-.16-.578Z" transform="translate(-279.397 -63.48)" fill="#fffdfd"/>
</svg>
