<svg xmlns="http://www.w3.org/2000/svg" xmlns:xlink="http://www.w3.org/1999/xlink" width="58.064" height="53.899" viewBox="0 0 58.064 53.899">
  <defs>
    <clipPath id="clip-path">
      <path id="Path_34477" data-name="Path 34477" d="M149.2,109.5h7.885a.981.981,0,0,1,.923,1.321l-4.556,12.425a.983.983,0,0,0,.923,1.321h4.8a.983.983,0,0,1,.815,1.535l-13.432,19.846a.732.732,0,0,1-1.3-.634l4.415-13.351a.981.981,0,0,0-.926-1.29l-4.491-.035a.984.984,0,0,1-.951-1.229l4.93-19.166A.981.981,0,0,1,149.2,109.5Z" transform="translate(-143.276 -109.5)" fill="#ffb000"/>
    </clipPath>
    <clipPath id="clip-path-2">
      <path id="Path_34483" data-name="Path 34483" d="M229.584,207.776l-26.5,15.052,2.682,4.8,26.5-15.049a1.305,1.305,0,0,0,.688-1.807c-.333-.667-1-1.894-1.462-2.606A1.323,1.323,0,0,0,229.584,207.776Z" transform="translate(-203.08 -207.536)" fill="#ffb000"/>
    </clipPath>
  </defs>
  <g id="Design_for_impact" data-name="Design for impact" transform="translate(0 0.001)">
    <path id="Path_34462" data-name="Path 34462" d="M87.933,32.968a2.617,2.617,0,0,1-.924,2.23c-.634.388-1.213-.178-1.485-.731a3.621,3.621,0,0,1-.119-2.711c.2-.561.712-1.34,1.414-1.11.87.292,1.11,1.539,1.11,2.322a.3.3,0,0,0,.6,0A3.143,3.143,0,0,0,87.256,30.2a1.642,1.642,0,0,0-2.21.883,4.179,4.179,0,0,0-.174,3.4c.327.826,1.091,1.685,2.074,1.4,1.17-.347,1.566-1.836,1.576-2.9A.294.294,0,0,0,87.933,32.968Z" transform="translate(-75.337 -30.014)" fill="#dc7550"/>
    <path id="Path_34463" data-name="Path 34463" d="M148.69,32.968a2.617,2.617,0,0,1-.924,2.23c-.634.388-1.213-.178-1.487-.731a3.627,3.627,0,0,1-.117-2.711c.2-.561.712-1.34,1.414-1.11.869.292,1.11,1.539,1.11,2.322a.3.3,0,0,0,.6,0,3.143,3.143,0,0,0-1.268-2.774,1.642,1.642,0,0,0-2.21.883,4.172,4.172,0,0,0-.174,3.4c.327.826,1.089,1.685,2.072,1.4,1.171-.347,1.568-1.836,1.577-2.9A.294.294,0,0,0,148.69,32.968Z" transform="translate(-126.461 -30.014)" fill="#dc7550"/>
    <path id="Path_34464" data-name="Path 34464" d="M209.458,32.968a2.639,2.639,0,0,1-.924,2.23c-.634.388-1.213-.178-1.487-.731a3.627,3.627,0,0,1-.117-2.711c.2-.561.712-1.34,1.414-1.11.869.292,1.11,1.539,1.11,2.322a.3.3,0,0,0,.6,0,3.143,3.143,0,0,0-1.268-2.774,1.641,1.641,0,0,0-2.208.883,4.172,4.172,0,0,0-.174,3.4c.317.826,1.089,1.685,2.072,1.4,1.171-.347,1.566-1.836,1.577-2.9A.3.3,0,0,0,209.458,32.968Z" transform="translate(-177.598 -30.014)" fill="#dc7550"/>
    <path id="Path_34465" data-name="Path 34465" d="M270.226,32.968a2.639,2.639,0,0,1-.924,2.23c-.634.388-1.213-.178-1.487-.731a3.627,3.627,0,0,1-.125-2.711c.2-.561.71-1.34,1.414-1.11.869.292,1.11,1.539,1.11,2.322a.3.3,0,0,0,.6,0,3.143,3.143,0,0,0-1.268-2.774,1.642,1.642,0,0,0-2.21.883,4.179,4.179,0,0,0-.173,3.4c.325.826,1.089,1.685,2.072,1.4,1.17-.347,1.566-1.836,1.577-2.9A.291.291,0,0,0,270.226,32.968Z" transform="translate(-228.725 -30.014)" fill="#dc7550"/>
    <path id="Path_34466" data-name="Path 34466" d="M65.342,93.2,26.21,93.149c0-25.09,3.348-39.877,6.149-46.323a.085.085,0,0,0,.011-.016l8.763,20.714c-.317,8.381,16.149-6.393,18.494,5.437A132.138,132.138,0,0,0,65.342,93.2Z" transform="translate(-26.21 -44.146)" fill="#dc7550"/>
    <path id="Path_34467" data-name="Path 34467" d="M77.1,72.962c1.525,7.7,3.584,17.086,5.716,22.842-13.838-.016-20.767-.195-34.613-.211-2.682-19-.431-44.029,1.639-48.783" transform="translate(-43.684 -44.146)" fill="#f9c0a7"/>
    <path id="Path_34468" data-name="Path 34468" d="M74.08,210.3c.626,3.171,1.284,6.32,2,9.466.7,3.055,1.443,6.1,2.324,9.109.422,1.436.873,2.863,1.392,4.268l.287-.377H66.165q-6.282,0-12.566.013H45.3l.287.219c-.488-3.383-.9-6.775-1.11-10.188q-.1-1.63-.147-3.259c-.013-.382-.609-.384-.6,0,.111,3.575.409,7.134.87,10.681q.19,1.465.4,2.925a.3.3,0,0,0,.287.219q6.958.009,13.919,0,6.282,0,12.566-.013h8.3a.3.3,0,0,0,.289-.377,82.429,82.429,0,0,1-2.435-8.075c-.812-3.147-1.528-6.319-2.2-9.5q-.558-2.63-1.08-5.269c-.075-.376-.648-.217-.574.159Z" transform="translate(-40.952 -181.403)" fill="#dc7550"/>
    <path id="Path_34469" data-name="Path 34469" d="M104.191,97.758c-13.839-.016-25.938.016-39.778,0-5.9-21.423-3.039-50.945-3.039-50.948h38.742C100.063,56.058,97.888,71.44,104.191,97.758Z" transform="translate(-55.216 -44.146)" fill="#fff"/>
    <path id="Path_34470" data-name="Path 34470" d="M63.07,96.142a95.213,95.213,0,0,1-2.536-13.3c-.553-4.42-.878-8.865-1.045-13.316-.149-3.943-.171-7.89-.087-11.834q.09-4.3.357-8.587.081-1.3.184-2.606c.032-.392.089-.793.1-1.183v-.051c.035-.38-.561-.379-.6,0q-.139,1.541-.241,3.083-.273,4.066-.377,8.14-.159,5.77,0,11.545c.132,4.439.417,8.877.916,13.3a103.063,103.063,0,0,0,2.337,13.4q.195.785.407,1.563a.3.3,0,0,0,.574-.159Z" transform="translate(-53.592 -42.609)" fill="#dc7550"/>
    <ellipse id="Ellipse_4209" data-name="Ellipse 4209" cx="0.807" cy="1.015" rx="0.807" ry="1.015" transform="translate(10.45 5.304)"/>
    <ellipse id="Ellipse_4210" data-name="Ellipse 4210" cx="0.807" cy="1.015" rx="0.807" ry="1.015" transform="translate(20.057 5.304)"/>
    <ellipse id="Ellipse_4211" data-name="Ellipse 4211" cx="0.807" cy="1.015" rx="0.807" ry="1.015" transform="translate(29.56 5.304)"/>
    <ellipse id="Ellipse_4212" data-name="Ellipse 4212" cx="0.807" cy="1.015" rx="0.807" ry="1.015" transform="translate(39.24 5.304)"/>
    <path id="Path_34471" data-name="Path 34471" d="M95.54,30.591a1.212,1.212,0,0,1,.951.686,3.61,3.61,0,0,1,.016,3.32,1.227,1.227,0,0,1-.967.715.3.3,0,0,0,0,.6c1.427-.035,1.959-1.8,1.959-2.958S96.955,30.03,95.54,30a.3.3,0,0,0,0,.6Z" transform="translate(-84.306 -30)" fill="#dc7550"/>
    <path id="Path_34472" data-name="Path 34472" d="M156.3,30.591a1.207,1.207,0,0,1,.951.686,3.616,3.616,0,0,1,.017,3.32,1.229,1.229,0,0,1-.969.715.3.3,0,0,0,0,.6c1.427-.035,1.961-1.8,1.961-2.958s-.541-2.92-1.961-2.95a.3.3,0,0,0,0,.6Z" transform="translate(-135.432 -30)" fill="#dc7550"/>
    <path id="Path_34473" data-name="Path 34473" d="M217.053,30.591a1.209,1.209,0,0,1,.951.686,3.616,3.616,0,0,1,.017,3.32,1.229,1.229,0,0,1-.969.715.3.3,0,0,0,0,.6c1.419-.03,1.969-1.787,1.969-2.953s-.55-2.925-1.969-2.955a.3.3,0,0,0,0,.6Z" transform="translate(-186.557 -30)" fill="#dc7550"/>
    <path id="Path_34474" data-name="Path 34474" d="M277.813,30.591a1.209,1.209,0,0,1,.951.686,3.542,3.542,0,0,1,.017,3.32,1.229,1.229,0,0,1-.969.715.3.3,0,0,0,0,.6c1.427-.035,1.961-1.8,1.961-2.958s-.542-2.92-1.961-2.95a.3.3,0,0,0,0,.6Z" transform="translate(-237.685 -30)" fill="#dc7550"/>
    <path id="Path_34475" data-name="Path 34475" d="M149.2,109.5h7.885a.981.981,0,0,1,.923,1.321l-4.556,12.425a.983.983,0,0,0,.923,1.321h4.8a.983.983,0,0,1,.815,1.535l-13.432,19.846a.732.732,0,0,1-1.3-.634l4.415-13.351a.981.981,0,0,0-.926-1.29l-4.491-.035a.984.984,0,0,1-.951-1.229l4.93-19.166A.981.981,0,0,1,149.2,109.5Z" transform="translate(-124.718 -96.897)" fill="#ffb000"/>
    <g id="Group_21594" data-name="Group 21594" transform="translate(18.558 12.602)" clip-path="url(#clip-path)">
      <path id="Path_34476" data-name="Path 34476" d="M165.7,90h10.055l-5.766,15.634a1.056,1.056,0,0,0,.989,1.427h7.314L163.82,126.8c-.531.726-3.224,5.092-1.387-.713l3.876-11.744a1.054,1.054,0,0,0-.992-1.386l-3.729-.029a1.056,1.056,0,0,1-1.018-1.3Z" transform="translate(-157.805 -93.091)" fill="#ffd917"/>
    </g>
    <path id="Path_34478" data-name="Path 34478" d="M229.584,207.776l-26.5,15.052,2.682,4.8,26.5-15.049a1.305,1.305,0,0,0,.688-1.807c-.333-.667-1-1.894-1.462-2.606A1.323,1.323,0,0,0,229.584,207.776Z" transform="translate(-175.041 -179.393)" fill="#ffb000"/>
    <g id="Group_21595" data-name="Group 21595" transform="translate(28.039 28.144)" clip-path="url(#clip-path-2)">
      <path id="Path_34479" data-name="Path 34479" d="M329.978,242.091l4.846-2.754.686-.39a.3.3,0,0,0-.3-.515l-4.848,2.75-.686.39a.3.3,0,0,0,.3.515Z" transform="translate(-309.485 -233.5)" fill="#ffd917"/>
      <path id="Path_34480" data-name="Path 34480" d="M190.841,281.61q6.958-3.963,13.931-7.9l4.7-2.654a.3.3,0,0,0-.3-.514q-7.758,4.382-15.505,8.779l-3.12,1.775a.3.3,0,0,0,.3.515Z" transform="translate(-192.414 -260.517)" fill="#ffd917"/>
      <path id="Path_34481" data-name="Path 34481" d="M184.636,242.3q4.482-2.554,8.952-5.131,5.951-3.418,11.912-6.817,3.079-1.758,6.164-3.5a.3.3,0,0,0-.3-.515q-5.726,3.237-11.43,6.515-5.612,3.215-11.217,6.436-2.188,1.256-4.379,2.508a.3.3,0,0,0,.3.514Z" transform="translate(-187.185 -223.319)" fill="#ffd917"/>
      <path id="Path_34482" data-name="Path 34482" d="M289.27,106.161q2.154,3.776,4.295,7.56,2.758,4.87,5.513,9.74t5.51,9.748l4.374,7.744,1.37,2.427c.211.373.4.783.634,1.133.011.016.019.035.029.051l.514-.3h0a.3.3,0,0,0-.514.3h0a.3.3,0,0,0,.514-.3q-.823-1.465-1.653-2.93-2.072-3.676-4.15-7.356-2.72-4.811-5.434-9.618-2.787-4.93-5.577-9.857-2.24-3.95-4.483-7.9l-.425-.745a.3.3,0,0,0-.515.3Z" transform="translate(-275.572 -121.856)" fill="#ffd917"/>
    </g>
    <path id="Path_34484" data-name="Path 34484" d="M177.435,309.528l6.157-.775-.059-1.2a.881.881,0,0,0-.49-.748l-.211-.106a.823.823,0,0,1-.455-.68l-.033-.495a1.1,1.1,0,0,0-.422-.793l-1.011-.793-4.017,4.559a.618.618,0,0,0,.541,1.029Z" transform="translate(-152.872 -260.514)" fill="#ffed9f"/>
    <path id="Path_34485" data-name="Path 34485" d="M177.46,325.768l1.828-.23-1.043-2.3-1.327,1.506a.618.618,0,0,0,.542,1.022Z" transform="translate(-152.896 -276.754)" fill="#ffb000"/>
  </g>
</svg>
