<svg xmlns="http://www.w3.org/2000/svg" xmlns:xlink="http://www.w3.org/1999/xlink" width="54.195" height="56.021" viewBox="0 0 54.195 56.021">
  <defs>
    <clipPath id="clip-path">
      <path id="Path_34489" data-name="Path 34489" d="M152.745,324.714v8.638a.379.379,0,0,1-.1.266l-.028.03a.366.366,0,0,1-.279.112h-.059c-1.363.049-2.737,0-4.1,0H118.519a.415.415,0,0,1-.409-.408v-8.638a.415.415,0,0,1,.409-.409.367.367,0,0,0,.056,0c1.363-.049,2.739,0,4.1,0h29.66A.415.415,0,0,1,152.745,324.714Z" transform="translate(-118.11 -324.283)" fill="#ffa20d"/>
    </clipPath>
    <clipPath id="clip-path-2">
      <path id="Path_34492" data-name="Path 34492" d="M282.759,261.094v8.636a.338.338,0,0,1-.1.251.059.059,0,0,1-.022.025.348.348,0,0,1-.265.108H271.1a.39.39,0,0,1-.383-.384v-8.636a.39.39,0,0,1,.383-.384h11.272A.389.389,0,0,1,282.759,261.094Z" transform="translate(-270.72 -260.71)" fill="#ffa20d"/>
    </clipPath>
    <clipPath id="clip-path-3">
      <path id="Path_34496" data-name="Path 34496" d="M183.665,70.38v8.635a.328.328,0,0,1-.313.353h0a.392.392,0,0,1-.12.016h-.055c-1.367.016-2.737,0-4.1,0l-8.449.012-9.767.012-8.079.01h-3.363a.414.414,0,0,1-.368-.443V77.889q0-3.778-.009-7.551a.414.414,0,0,1,.443-.368.377.377,0,0,1,.058,0c1.366-.019,2.736,0,4.1,0q4.221,0,8.449-.009l9.763-.012q4.04,0,8.076-.009h3.363A.407.407,0,0,1,183.665,70.38Z" transform="translate(-149.04 -69.94)" fill="#ffa20d"/>
    </clipPath>
    <clipPath id="clip-path-4">
      <path id="Path_34499" data-name="Path 34499" d="M147.4,260.949v8.636a.378.378,0,0,1-.109.276l-.01.01-.01.01a.376.376,0,0,1-.279.109H135.716a.412.412,0,0,1-.406-.406v-8.636a.414.414,0,0,1,.406-.409h11.275A.414.414,0,0,1,147.4,260.949Z" transform="translate(-135.31 -260.54)" fill="#ffd917"/>
    </clipPath>
    <clipPath id="clip-path-5">
      <path id="Path_34502" data-name="Path 34502" d="M97,9.971v1q0,3.578.009,7.16a.336.336,0,0,1-.337.355.377.377,0,0,1-.109.013h-.049c-1.182.016-2.357,0-3.534,0h-7.3l-8.415.01-6.959.009H67.4a.414.414,0,0,1-.368-.443V9.915a.412.412,0,0,1,.443-.368h.049c1.182-.016,2.365,0,3.534,0l7.3-.007,8.412-.01L93.73,9.52h2.913A.423.423,0,0,1,97,9.971Z" transform="translate(-67.03 -9.52)" fill="#ffa20d"/>
    </clipPath>
    <clipPath id="clip-path-6">
      <path id="Path_34506" data-name="Path 34506" d="M147.316,134.4v1.085q0,3.773.009,7.551a.334.334,0,0,1-.337.355.423.423,0,0,1-.108.015H135.607a.414.414,0,0,1-.368-.443V141.88q0-3.776-.009-7.551a.417.417,0,0,1,.443-.371h1.406q3.024,0,6.06-.007h3.815A.425.425,0,0,1,147.316,134.4Z" transform="translate(-135.23 -133.95)" fill="#ffd917"/>
    </clipPath>
    <clipPath id="clip-path-7">
      <path id="Path_34510" data-name="Path 34510" d="M51.28,197.093v8.636a.336.336,0,0,1-.333.356.383.383,0,0,1-.109.013H50.78c-1.367.016-2.736,0-4.1,0l-8.449.01-9.77.009q-4.04,0-8.079.01H17.017a.414.414,0,0,1-.368-.443V204.6q0-3.773-.009-7.551a.414.414,0,0,1,.443-.368h.053c1.367-.019,2.736,0,4.1,0l8.446-.007q4.888-.009,9.773-.013H50.9A.405.405,0,0,1,51.28,197.093Z" transform="translate(-16.64 -196.658)" fill="#ffd917"/>
    </clipPath>
  </defs>
  <g id="Take_Risks" data-name="Take Risks" transform="translate(0 0.001)">
    <rect id="Rectangle_5584" data-name="Rectangle 5584" width="11.273" height="8.636" transform="translate(17.935 18.82) rotate(-0.06)" fill="#ffd917"/>
    <rect id="Rectangle_5585" data-name="Rectangle 5585" width="11.273" height="8.636" transform="translate(29.208 18.74) rotate(-0.06)" fill="#ffd917"/>
    <path id="Path_34486" data-name="Path 34486" d="M223.336,142.248H212.063l.383.383V134l-.384.383h11.273l-.383-.384.007,7.551v1.085a.384.384,0,0,0,.767,0l-.007-7.551v-1.085a.39.39,0,0,0-.384-.384H212.054a.39.39,0,0,0-.384.384l.009,7.55v1.085a.389.389,0,0,0,.384.384h11.273A.383.383,0,0,0,223.336,142.248Z" transform="translate(-182.844 -115.269)" fill="#ffd917"/>
    <path id="Path_34487" data-name="Path 34487" d="M152.745,324.714v8.638a.379.379,0,0,1-.1.266l-.028.03a.366.366,0,0,1-.279.112h-.059c-1.363.049-2.737,0-4.1,0H118.519a.415.415,0,0,1-.409-.408v-8.638a.415.415,0,0,1,.409-.409.367.367,0,0,0,.056,0c1.363-.049,2.739,0,4.1,0h29.66A.415.415,0,0,1,152.745,324.714Z" transform="translate(-103.112 -277.761)" fill="#ffa20d"/>
    <g id="Group_21596" data-name="Group 21596" transform="translate(14.998 46.523)" clip-path="url(#clip-path)">
      <path id="Path_34488" data-name="Path 34488" d="M110.38,219.877V244.8a1.535,1.535,0,1,0,3.07,0V219.877a1.535,1.535,0,0,0-3.07,0Z" transform="translate(-111.523 -234)" fill="#ffd283"/>
    </g>
    <path id="Path_34490" data-name="Path 34490" d="M282.759,261.094v8.636a.338.338,0,0,1-.1.251.059.059,0,0,1-.022.025.348.348,0,0,1-.265.108H271.1a.39.39,0,0,1-.383-.384v-8.636a.39.39,0,0,1,.383-.384h11.272A.389.389,0,0,1,282.759,261.094Z" transform="translate(-233.166 -223.584)" fill="#ffa20d"/>
    <g id="Group_21597" data-name="Group 21597" transform="translate(37.554 37.126)" clip-path="url(#clip-path-2)">
      <path id="Path_34491" data-name="Path 34491" d="M262.92,221.918v24.924a1.535,1.535,0,0,0,3.07,0V221.918a1.535,1.535,0,1,0-3.07,0Z" transform="translate(-264.073 -226.342)" fill="#ffd283"/>
    </g>
    <path id="Path_34493" data-name="Path 34493" d="M269.915,319.787h11.6a.409.409,0,0,0,0-.817h-11.6A.409.409,0,0,0,269.915,319.787Z" transform="translate(-232.143 -273.233)" fill="#e57700"/>
    <path id="Path_34494" data-name="Path 34494" d="M183.665,70.38v8.635a.328.328,0,0,1-.313.353h0a.392.392,0,0,1-.12.016h-.055c-1.367.016-2.737,0-4.1,0l-8.449.012-9.767.012-8.079.01h-3.363a.414.414,0,0,1-.368-.443V77.889q0-3.778-.009-7.551a.414.414,0,0,1,.443-.368.377.377,0,0,1,.058,0c1.366-.019,2.736,0,4.1,0q4.221,0,8.449-.009l9.763-.012q4.04,0,8.076-.009h3.363A.407.407,0,0,1,183.665,70.38Z" transform="translate(-129.471 -61.01)" fill="#ffa20d"/>
    <g id="Group_21598" data-name="Group 21598" transform="translate(19.569 8.93)" clip-path="url(#clip-path-3)">
      <path id="Path_34495" data-name="Path 34495" d="M140.977,36.2v2.59l-.012,6.184-.015,7.474-.022,6.465c0,1.051-.028,2.1,0,3.154v.046a1.535,1.535,0,1,0,3.07,0V59.52l.012-6.183.015-7.476.012-6.465c0-1.049.03-2.1,0-3.153V36.2a1.535,1.535,0,0,0-3.07,0Z" transform="translate(-142.116 -39.876)" fill="#ffd283"/>
    </g>
    <path id="Path_34497" data-name="Path 34497" d="M147.4,260.949v8.636a.378.378,0,0,1-.109.276l-.01.01-.01.01a.376.376,0,0,1-.279.109H135.716a.412.412,0,0,1-.406-.406v-8.636a.414.414,0,0,1,.406-.409h11.275A.414.414,0,0,1,147.4,260.949Z" transform="translate(-117.77 -223.439)" fill="#ffd917"/>
    <g id="Group_21599" data-name="Group 21599" transform="translate(17.54 37.101)" clip-path="url(#clip-path-4)">
      <path id="Path_34498" data-name="Path 34498" d="M130.76,243.7v-14a1.535,1.535,0,0,0-3.07,0v14a1.535,1.535,0,0,0,3.07,0Z" transform="translate(-128.816 -232.947)" fill="#fff1b6"/>
    </g>
    <path id="Path_34500" data-name="Path 34500" d="M97,9.971v1q0,3.578.009,7.16a.336.336,0,0,1-.337.355.377.377,0,0,1-.109.013h-.049c-1.182.016-2.357,0-3.534,0h-7.3l-8.415.01-6.959.009H67.4a.414.414,0,0,1-.368-.443V9.915a.412.412,0,0,1,.443-.368h.049c1.182-.016,2.365,0,3.534,0l7.3-.007,8.412-.01L93.73,9.52h2.913A.423.423,0,0,1,97,9.971Z" transform="translate(-59.582 -9.52)" fill="#ffa20d"/>
    <g id="Group_21600" data-name="Group 21600" transform="translate(7.448 0)" clip-path="url(#clip-path-5)">
      <path id="Path_34501" data-name="Path 34501" d="M59.052-6.972V15.735c0,1.049-.027,2.1,0,3.153v.046a1.535,1.535,0,1,0,3.07,0V-3.773c0-1.049.027-2.1,0-3.153v-.046a1.554,1.554,0,0,0-1.536-1.536A1.562,1.562,0,0,0,59.052-6.972Z" transform="translate(-60.221 5.844)" fill="#ffd283"/>
    </g>
    <path id="Path_34503" data-name="Path 34503" d="M148.481,65.638h5.863l9.38-.01h2.143a.409.409,0,0,0,0-.817H160l-9.38.01h-2.143A.409.409,0,0,0,148.481,65.638Z" transform="translate(-128.658 -56.638)" fill="#e57700"/>
    <path id="Path_34504" data-name="Path 34504" d="M147.316,134.4v1.085q0,3.773.009,7.551a.334.334,0,0,1-.337.355.423.423,0,0,1-.108.015H135.607a.414.414,0,0,1-.368-.443V141.88q0-3.776-.009-7.551a.417.417,0,0,1,.443-.371h1.406q3.024,0,6.06-.007h3.815A.425.425,0,0,1,147.316,134.4Z" transform="translate(-117.702 -115.559)" fill="#ffd917"/>
    <g id="Group_21601" data-name="Group 21601" transform="translate(17.528 18.391)" clip-path="url(#clip-path-6)">
      <path id="Path_34505" data-name="Path 34505" d="M129.984,131.12l-.013-5.331-.021-8.487v-1.935a1.535,1.535,0,0,0-3.07,0l.013,5.331.022,8.487v1.935a1.535,1.535,0,0,0,3.07,0Z" transform="translate(-128.114 -116.805)" fill="#fff1b6"/>
    </g>
    <line id="Line_283" data-name="Line 283" x1="0.01" y1="9.683" transform="translate(29.209 18.194)" fill="#ffd917"/>
    <path id="Path_34507" data-name="Path 34507" d="M212.3,140.033l-.013-8.488v-1.193a.409.409,0,0,0-.817,0l.01,8.488v1.193a.409.409,0,0,0,.817,0Z" transform="translate(-182.673 -112.156)" fill="#ffa20d"/>
    <rect id="Rectangle_5586" data-name="Rectangle 5586" width="33.821" height="8.636" transform="translate(0.406 28.093) rotate(-0.06)" fill="#ffd917"/>
    <path id="Path_34508" data-name="Path 34508" d="M51.28,197.093v8.636a.336.336,0,0,1-.333.356.383.383,0,0,1-.109.013H50.78c-1.367.016-2.736,0-4.1,0l-8.449.01-9.77.009q-4.04,0-8.079.01H17.017a.414.414,0,0,1-.368-.443V204.6q0-3.773-.009-7.551a.414.414,0,0,1,.443-.368h.053c1.367-.019,2.736,0,4.1,0l8.446-.007q4.888-.009,9.773-.013H50.9A.405.405,0,0,1,51.28,197.093Z" transform="translate(-16.64 -168.999)" fill="#ffd917"/>
    <g id="Group_21602" data-name="Group 21602" transform="translate(0 27.659)" clip-path="url(#clip-path-7)">
      <path id="Path_34509" data-name="Path 34509" d="M11.568,181.25l-.013-5.331-.021-8.487V165.5a1.537,1.537,0,0,0-3.074,0l.013,5.331.021,8.487v1.935a1.535,1.535,0,0,0,3.07,0Z" transform="translate(-9.669 -168.794)" fill="#fff1b6"/>
    </g>
    <line id="Line_284" data-name="Line 284" y1="0.016" x2="11.458" transform="translate(22.826 27.435)" fill="#ffd917"/>
    <path id="Path_34511" data-name="Path 34511" d="M168.788,193.236h3.875l6.172-.009h1.412a.409.409,0,0,0,0-.817h-3.875l-6.171.01h-1.413a.409.409,0,0,0,0,.817Z" transform="translate(-145.964 -165.379)" fill="#ffa20d"/>
    <line id="Line_285" data-name="Line 285" y1="0.018" x2="11.458" transform="translate(17.849 37.5)" fill="#ffd917"/>
    <path id="Path_34512" data-name="Path 34512" d="M135.121,261.366H139l6.172-.009h1.412a.409.409,0,0,0,0-.817h-3.874l-6.172.009h-1.412A.409.409,0,0,0,135.121,261.366Z" transform="translate(-117.272 -223.439)" fill="#ffa20d"/>
  </g>
</svg>
