<svg xmlns="http://www.w3.org/2000/svg" xmlns:xlink="http://www.w3.org/1999/xlink" width="46.68" height="55.692" viewBox="0 0 46.68 55.692">
  <defs>
    <clipPath id="clip-path">
      <path id="Path_34517" data-name="Path 34517" d="M68.454,75.666c-11-1.611-19.058-10.884-19.779-22.041-.526-8.216-.526-28.376-.526-28.376a4.808,4.808,0,0,1,4.884-4.729h15.42v10.7a16.16,16.16,0,0,0,3.169,9.935c3.632,4.652,10,6.53,9.578,7.665-.1.283-.569.44-1.618.44-5.325,0-11.132-.012-11.132-.012V59.893A13.922,13.922,0,0,1,59.1,57.741a.994.994,0,0,0-1.463,1.248A13.628,13.628,0,0,0,60.89,63.3a12.732,12.732,0,0,0,7.562,2.937v9.423" transform="translate(-48.15 -20.52)" fill="#ffd917"/>
    </clipPath>
    <clipPath id="clip-path-2">
      <path id="Path_34523" data-name="Path 34523" d="M262.175,95.49a5.107,5.107,0,0,1-5.02,4.44,5.324,5.324,0,0,1-5.226-4.44,9.551,9.551,0,0,0,5.253,1.752,7.991,7.991,0,0,0,4.991-1.751Z" transform="translate(-251.93 -95.49)" fill="#ffd917"/>
    </clipPath>
  </defs>
  <g id="Tell_a_story" data-name="Tell a story" transform="translate(0 0.001)">
    <path id="Path_34513" data-name="Path 34513" d="M213.444,38.972V19.85a4.4,4.4,0,0,0,0-.779.24.24,0,0,1,0-.034l-.263.264h15.086a8.115,8.115,0,0,1,1.977.137,4.563,4.563,0,0,1,3.443,3.764,10.894,10.894,0,0,1,.034,1.417q0,3.34-.032,6.681-.038,5.026-.129,10.051c-.06,3.149-.132,6.3-.289,9.446a36.562,36.562,0,0,1-.486,4.738,26.456,26.456,0,0,1-1.423,5.009,21.623,21.623,0,0,1-5.734,8.265,21.08,21.08,0,0,1-9.564,4.692,25.726,25.726,0,0,1-2.882.44l.263.263V64.311l-.194.255a26.128,26.128,0,0,1,6.169-.523q1.277.032,2.551.154a2.975,2.975,0,0,0,1.068.026,1.293,1.293,0,0,0,.729-.539c.733-1.117-.615-2.115-1.394-2.734A13.1,13.1,0,0,0,218.993,59a16.38,16.38,0,0,0-5.806-1.057l.263.263V49.523a.264.264,0,0,0-.527,0v8.684a.269.269,0,0,0,.264.264,14.544,14.544,0,0,1,8.349,2.5,11.3,11.3,0,0,1,1.188.977c.338.318.835.689.712,1.213-.177.748-.971.561-1.537.507q-1.191-.115-2.387-.154a26.86,26.86,0,0,0-6.4.538.266.266,0,0,0-.194.254V74.2a.266.266,0,0,0,.264.264,23.071,23.071,0,0,0,10.672-3.636,21.22,21.22,0,0,0,6.819-7.571,26.663,26.663,0,0,0,2.969-10.107c.137-1.434.184-2.879.24-4.319.063-1.611.109-3.228.154-4.832.083-3.47.132-6.941.166-10.411q.037-3.976.049-7.957V23.884a5.035,5.035,0,0,0-1.283-3.426,5.29,5.29,0,0,0-3.936-1.691h-15.85a.267.267,0,0,0-.264.263V36.519c0,.8-.058,1.621,0,2.419a.255.255,0,0,1,0,.034.264.264,0,0,0,.527,0Z" transform="translate(-187.572 -18.768)" fill="#ffd917"/>
    <path id="Path_34514" data-name="Path 34514" d="M68.454,75.666c-11-1.611-19.058-10.884-19.779-22.041-.526-8.216-.526-28.376-.526-28.376a4.808,4.808,0,0,1,4.884-4.729h15.42v10.7a16.16,16.16,0,0,0,3.169,9.935c3.632,4.652,10,6.53,9.578,7.665-.1.283-.569.44-1.618.44-5.325,0-11.132-.012-11.132-.012V59.893A13.922,13.922,0,0,1,59.1,57.741a.994.994,0,0,0-1.463,1.248A13.628,13.628,0,0,0,60.89,63.3a12.732,12.732,0,0,0,7.562,2.937v9.423" transform="translate(-48.15 -20.251)" fill="#ffd917"/>
    <g id="Group_21603" data-name="Group 21603" transform="translate(0 0.269)" clip-path="url(#clip-path)">
      <path id="Path_34515" data-name="Path 34515" d="M167,1.546c.061,3.155-.069,6.3-.123,9.458a27.728,27.728,0,0,0,.587,6.867,18.135,18.135,0,0,0,3.209,6.941c2.059,2.677,4.9,4.508,7.758,6.241a61.683,61.683,0,0,0,9.652,4.675,1.947,1.947,0,0,0,2.376-1.349A1.974,1.974,0,0,0,189.111,32a55.347,55.347,0,0,1-7.579-3.607c-2.585-1.489-5.321-3.062-7.316-5.318a13.479,13.479,0,0,1-2.932-5.84q-.167-.662-.3-1.333c-.046-.237-.089-.475-.124-.715.049.343-.026-.292-.038-.42-.092-1.054-.1-2.115-.092-3.172.032-3.35.2-6.695.131-10.047-.048-2.482-3.91-2.49-3.862,0Z" transform="translate(-148.624 -2.89)" fill="#ffed9f"/>
      <path id="Path_34516" data-name="Path 34516" d="M166.862,207.47H164.22v28.075s3.878.957,3.878,0V207.49l-1.23-.02" transform="translate(-146.381 -178.737)" fill="#ffed9f"/>
    </g>
    <path id="Path_34518" data-name="Path 34518" d="M180.26,379.33" transform="translate(-159.956 -323.915)" fill="none" stroke="#dc7550" stroke-width="1.07"/>
    <path id="Path_34519" data-name="Path 34519" d="M94.492,89.544A6.269,6.269,0,0,0,88.543,84.7a5.906,5.906,0,0,0-5.753,4.844A10.654,10.654,0,0,1,94.492,89.544Z" transform="translate(-77.466 -74.567)"/>
    <path id="Path_34520" data-name="Path 34520" d="M93.327,88.126a6.659,6.659,0,0,0-4.382-4.749,6.126,6.126,0,0,0-7.828,4.749c-.037.2.183.447.386.3a9.382,9.382,0,0,1,3.658-1.506,10.484,10.484,0,0,1,6.558.805,7.245,7.245,0,0,1,1.222.7c.271.2.533-.254.266-.461a6.817,6.817,0,0,0-1.01-.6,11.021,11.021,0,0,0-9.652-.141,7.506,7.506,0,0,0-1.308.739l.387.3a5.589,5.589,0,0,1,9.4-3.066,6.131,6.131,0,0,1,1.787,3.074A.267.267,0,0,0,93.327,88.126Z" transform="translate(-76.047 -73.219)"/>
    <path id="Path_34521" data-name="Path 34521" d="M262.175,95.49a5.107,5.107,0,0,1-5.02,4.44,5.324,5.324,0,0,1-5.226-4.44,9.551,9.551,0,0,0,5.253,1.752,7.991,7.991,0,0,0,4.991-1.751Z" transform="translate(-220.611 -83.699)" fill="#ffd917"/>
    <g id="Group_21604" data-name="Group 21604" transform="translate(31.319 11.791)" clip-path="url(#clip-path-2)">
      <path id="Path_34522" data-name="Path 34522" d="M235.909,88.482c-.025,2.74,2.7,5.007,5.172,5.6a5.63,5.63,0,0,0,4.245-.6,8.363,8.363,0,0,0,3.306-4.867c.307-.973-1.22-1.383-1.523-.421-.815,2.613-2.705,5.13-5.747,4.326-1.734-.461-3.89-2.053-3.873-4.039A.79.79,0,0,0,235.909,88.482Z" transform="translate(-238.371 -88.852)" fill="#fff5cc"/>
    </g>
    <path id="Path_34524" data-name="Path 34524" d="M260.457,94.034a4.844,4.844,0,0,1-3.288,3.934,5.081,5.081,0,0,1-5.05-1.253,4.4,4.4,0,0,1-1.383-2.682l-.395.232a9.306,9.306,0,0,0,3.6,1.591,8.381,8.381,0,0,0,5.879-.888,6.064,6.064,0,0,0,1.076-.744c.254-.226-.12-.6-.372-.372l-.048.042-.068.054a.648.648,0,0,1-.058.046q-.308.221-.615.413a7.962,7.962,0,0,1-2.206.9,8.367,8.367,0,0,1-5.777-.8,7.637,7.637,0,0,1-1.15-.705.264.264,0,0,0-.4.227,5.454,5.454,0,0,0,3.81,4.425,5.359,5.359,0,0,0,5.521-1.374,5.251,5.251,0,0,0,1.448-3.049C261.022,93.7,260.5,93.7,260.457,94.034Z" transform="translate(-219.155 -82.243)" fill="#ffd917"/>
  </g>
</svg>
